<svg width="956" height="777" viewBox="0 0 956 777" fill="none" xmlns="http://www.w3.org/2000/svg">
<g filter="url(#filter0_f_859_9587)">
<path d="M799.249 752.157C714.317 770.157 438.604 638.952 382.718 552.026C326.833 465.1 635.38 300.366 635.38 300.366C635.38 300.366 393.496 387.572 204.238 502.167C91.6549 570.336 271.267 155.856 271.267 155.856C271.267 155.856 89.9317 503.67 -63.1565 484.194C-188.447 468.255 -206.076 261.007 -206.076 261.007L-231.027 521.34L-365.02 519.284C-365.02 519.284 -55.0501 600.222 -70.8709 702.344C-86.6916 804.467 -403.683 768.855 -403.683 768.855L-101.733 753.334C-101.733 753.334 -352.345 915.334 -267.108 981.288C-181.87 1047.24 -128.412 776.374 -22.1668 814.9C84.0788 853.427 -22.7478 1177.6 -7.4603 1075.44C3.76054 1000.46 -7.65003 883.399 -7.65003 883.399C-7.65003 883.399 76.3061 1279.55 287.872 1262.13C310.896 1260.23 89.1282 732.538 124.268 898.345C149.739 1018.53 587.884 888.476 566.625 886.697C384.861 871.488 484.931 875.522 385.897 810.442C58.2358 595.121 799.249 752.157 799.249 752.157Z" fill="url(#paint0_linear_859_9587)" fill-opacity="0.2"/>
</g>
<defs>
<filter id="filter0_f_859_9587" x="-559.54" y="4.57764e-05" width="1514.65" height="1418.54" filterUnits="userSpaceOnUse" color-interpolation-filters="sRGB">
<feFlood flood-opacity="0" result="BackgroundImageFix"/>
<feBlend mode="normal" in="SourceGraphic" in2="BackgroundImageFix" result="shape"/>
<feGaussianBlur stdDeviation="77.9282" result="effect1_foregroundBlur_859_9587"/>
</filter>
<linearGradient id="paint0_linear_859_9587" x1="686.696" y1="1674.88" x2="137.59" y2="116.62" gradientUnits="userSpaceOnUse">
<stop stop-color="#ED8F85"/>
<stop offset="0.1875" stop-color="#D95F69"/>
<stop offset="0.375" stop-color="#ECB1B6"/>
<stop offset="0.629808" stop-color="#D95F69"/>
<stop offset="0.769231" stop-color="#D29FEC"/>
<stop offset="0.982559" stop-color="#D95F69"/>
</linearGradient>
</defs>
</svg>
